<svg width="24" height="20" viewBox="0 0 24 20" fill="none" xmlns="http://www.w3.org/2000/svg">
<path fill-rule="evenodd" clip-rule="evenodd" d="M0.799805 3.17526C0.799805 3.17526 10.4593 8.65293 12.3342 8.65293C14.2993 8.65293 23.8542 3.2799 23.8542 3.2799L23.8696 2.3199C23.8696 1.26006 23.0094 0.399902 21.9467 0.399902H2.72172C1.65996 0.399902 0.799805 1.26006 0.799805 2.3199V3.17526ZM23.8542 6.1599C23.8542 6.1599 14.3896 11.2929 12.3342 11.2929C10.4593 11.2929 0.814205 6.1599 0.815165 6.1599L0.799805 17.6799C0.799805 18.7397 1.66092 19.5999 2.72172 19.5999H21.9467C23.0094 19.5999 23.8696 18.7397 23.8696 17.6799L23.8542 6.1599Z" fill="white"/>
</svg>
