<svg fill="none" height="611" viewBox="0 0 1010 611" width="1010" xmlns="http://www.w3.org/2000/svg"><path d="m966.45 610.8c-306.825-31.6-616.085-31.6-922.9099 0-5.4954.565-11.0481-.027-16.301-1.737s-10.0897-4.501-14.1991-8.193c-4.0943-3.689-7.3674-8.198-9.60697-13.233-2.23956-5.036-3.3955593-10.486-3.3929867-15.997v-532.28c.0064115-8.4525 2.7322667-16.6786 7.7745967-23.4623 5.04236-6.78377 12.13356-11.76512 20.22536-14.2077 5.3823-1.6199995 11.0469-2.08012 16.6201-1.350002 305.5749 40.280002 615.1149 40.280002 920.6899 0 8.392-1.11432 16.92.497078 24.327 4.596652 7.407 4.09957 13.303 10.47035 16.813 18.17335 2.32 5.1037 3.52 10.6443 3.52 16.25v532.28c-.01 8.313-2.66 16.408-7.55 23.129-4.892 6.721-11.784 11.723-19.69 14.291-5.259 1.71-10.818 2.303-16.32 1.74z" fill="#717171"/></svg>