<svg fill="none" height="647" viewBox="0 0 1012 647" width="1012" xmlns="http://www.w3.org/2000/svg"><path d="m985.18 58.0101-15.62-3.71c-305.07-72.3998-622.85-72.3998-927.92 0l-15.62 3.71c-7.4055 1.7619-14.0004 5.9698-18.71844 11.9436-4.71805 5.9738-7.2834753 13.3641-7.2815394 20.9763v521.85c.0031506 5.103 1.1608094 10.14 3.3862894 14.732 2.22549 4.592 5.46112 8.622 9.46459 11.787 4.0035 3.164 8.6711 5.382 13.6532 6.487 4.9822 1.106 10.1498 1.069 15.1159-.106 305.07-72.4 622.85-72.4 927.92 0 4.969 1.179 10.141 1.218 15.127.113 4.986-1.104 9.658-3.324 13.664-6.491 4.009-3.167 7.239-7.201 9.469-11.797 2.22-4.597 3.38-9.638 3.38-14.745v-521.83c0-7.6145-2.57-15.0062-7.29-20.98-4.723-5.9737-11.322-10.1803-18.73-11.9399z" fill="#717171"/></svg>