<svg width="800" height="550" viewBox="0 0 800 550" fill="none" xmlns="http://www.w3.org/2000/svg">
<path d="M64.0423 475.95C63.5877 471.697 61.6721 468.385 58.2955 466.015C54.9514 463.645 50.6007 462.46 45.2436 462.46C41.4773 462.46 38.2468 463.028 35.552 464.164C32.8572 465.301 30.7955 466.843 29.3669 468.791C27.9384 470.739 27.2079 472.963 27.1754 475.463C27.1754 477.541 27.6462 479.343 28.5877 480.869C29.5617 482.395 30.8767 483.693 32.5325 484.765C34.1884 485.804 36.0228 486.68 38.0358 487.395C40.0488 488.109 42.078 488.71 44.1234 489.197L53.4741 491.534C57.2403 492.411 60.8604 493.596 64.3345 495.09C67.841 496.583 70.9741 498.466 73.7338 500.739C76.526 503.012 78.7338 505.755 80.3572 508.969C81.9806 512.184 82.7923 515.95 82.7923 520.268C82.7923 526.112 81.2988 531.258 78.3117 535.706C75.3247 540.122 71.0066 543.58 65.3572 546.08C59.7403 548.547 52.9384 549.781 44.9514 549.781C37.1916 549.781 30.4546 548.58 24.7403 546.177C19.0585 543.775 14.6104 540.268 11.3962 535.658C8.21434 531.047 6.49357 525.43 6.23383 518.807H24.0098C24.2695 522.281 25.341 525.171 27.2241 527.476C29.1072 529.781 31.5585 531.502 34.578 532.638C37.6299 533.775 41.039 534.343 44.8053 534.343C48.7338 534.343 52.1754 533.758 55.1299 532.59C58.1169 531.388 60.4546 529.732 62.1429 527.622C63.8312 525.479 64.6916 522.979 64.7241 520.122C64.6916 517.525 63.9286 515.382 62.4351 513.693C60.9416 511.973 58.8475 510.544 56.1527 509.408C53.4903 508.239 50.3734 507.2 46.802 506.291L35.4546 503.369C27.2403 501.258 20.7468 498.06 15.9741 493.775C11.2338 489.456 8.8637 483.726 8.8637 476.583C8.8637 470.706 10.4546 465.56 13.6364 461.145C16.8507 456.729 21.2176 453.304 26.7371 450.869C32.2566 448.401 38.5066 447.167 45.4871 447.167C52.565 447.167 58.7663 448.401 64.091 450.869C69.4481 453.304 73.6527 456.697 76.7046 461.047C79.7566 465.366 81.3312 470.333 81.4286 475.95H64.0423Z" fill="black"/>
<path d="M178.424 498.401C178.424 509.148 176.411 518.353 172.385 526.015C168.391 533.645 162.937 539.489 156.021 543.547C149.138 547.606 141.329 549.635 132.596 549.635C123.862 549.635 116.037 547.606 109.122 543.547C102.239 539.456 96.784 533.596 92.758 525.966C88.7645 518.304 86.7677 509.116 86.7677 498.401C86.7677 487.654 88.7645 478.466 92.758 470.836C96.784 463.174 102.239 457.314 109.122 453.255C116.037 449.197 123.862 447.167 132.596 447.167C141.329 447.167 149.138 449.197 156.021 453.255C162.937 457.314 168.391 463.174 172.385 470.836C176.411 478.466 178.424 487.654 178.424 498.401ZM160.258 498.401C160.258 490.836 159.073 484.456 156.703 479.262C154.365 474.034 151.118 470.09 146.963 467.427C142.807 464.732 138.018 463.385 132.596 463.385C127.174 463.385 122.385 464.732 118.229 467.427C114.073 470.09 110.81 474.034 108.44 479.262C106.102 484.456 104.933 490.836 104.933 498.401C104.933 505.966 106.102 512.362 108.44 517.59C110.81 522.784 114.073 526.729 118.229 529.424C122.385 532.086 127.174 533.417 132.596 533.417C138.018 533.417 142.807 532.086 146.963 529.424C151.118 526.729 154.365 522.784 156.703 517.59C159.073 512.362 160.258 505.966 160.258 498.401Z" fill="black"/>
<path d="M185.906 448.531H208.016L237.626 520.804H238.795L268.406 448.531H290.516V548.271H273.178V479.749H272.253L244.688 547.979H231.733L204.169 479.603H203.243V548.271H185.906V448.531Z" fill="black"/>
<path d="M313.4 548.271H294.114L329.228 448.531H351.533L386.695 548.271H367.409L340.77 468.986H339.991L313.4 548.271ZM314.033 509.164H366.63V523.677H314.033V509.164Z" fill="black"/>
<path d="M468.855 475.95C468.4 471.697 466.485 468.385 463.108 466.015C459.764 463.645 455.413 462.46 450.056 462.46C446.29 462.46 443.059 463.028 440.364 464.164C437.67 465.301 435.608 466.843 434.179 468.791C432.751 470.739 432.02 472.963 431.988 475.463C431.988 477.541 432.459 479.343 433.4 480.869C434.374 482.395 435.689 483.693 437.345 484.765C439.001 485.804 440.835 486.68 442.848 487.395C444.861 488.109 446.89 488.71 448.936 489.197L458.287 491.534C462.053 492.411 465.673 493.596 469.147 495.09C472.653 496.583 475.787 498.466 478.546 500.739C481.339 503.012 483.546 505.755 485.17 508.969C486.793 512.184 487.605 515.95 487.605 520.268C487.605 526.112 486.111 531.258 483.124 535.706C480.137 540.122 475.819 543.58 470.17 546.08C464.553 548.547 457.751 549.781 449.764 549.781C442.004 549.781 435.267 548.58 429.553 546.177C423.871 543.775 419.423 540.268 416.209 535.658C413.027 531.047 411.306 525.43 411.046 518.807H428.822C429.082 522.281 430.153 525.171 432.037 527.476C433.92 529.781 436.371 531.502 439.39 532.638C442.442 533.775 445.851 534.343 449.618 534.343C453.546 534.343 456.988 533.758 459.942 532.59C462.929 531.388 465.267 529.732 466.955 527.622C468.644 525.479 469.504 522.979 469.537 520.122C469.504 517.525 468.741 515.382 467.248 513.693C465.754 511.973 463.66 510.544 460.965 509.408C458.303 508.239 455.186 507.2 451.614 506.291L440.267 503.369C432.053 501.258 425.559 498.06 420.787 493.775C416.046 489.456 413.676 483.726 413.676 476.583C413.676 470.706 415.267 465.56 418.449 461.145C421.663 456.729 426.03 453.304 431.55 450.869C437.069 448.401 443.319 447.167 450.3 447.167C457.377 447.167 463.579 448.401 468.903 450.869C474.261 453.304 478.465 456.697 481.517 461.047C484.569 465.366 486.144 470.333 486.241 475.95H468.855Z" fill="black"/>
<path d="M509.428 548.271H490.143L525.256 448.531H547.561L582.724 548.271H563.438L536.798 468.986H536.019L509.428 548.271ZM510.061 509.164H562.659V523.677H510.061V509.164Z" fill="black"/>
<path d="M601.99 548.271L573.841 448.531H593.273L611.244 521.827H612.169L631.357 448.531H649.036L668.273 521.875H669.15L687.12 448.531H706.552L678.403 548.271H660.578L640.611 478.288H639.831L619.815 548.271H601.99Z" fill="black"/>
<path d="M717.028 548.271H697.743L732.856 448.531H755.161L790.324 548.271H771.038L744.398 468.986H743.619L717.028 548.271ZM717.661 509.164H770.259V523.677H717.661V509.164Z" fill="black"/>
<path d="M422.725 6.15755C422.725 2.75685 419.957 3.71252e-06 416.548 3.71252e-06L381.731 0C378.322 0 375.554 2.75681 375.554 6.15755V244.262C375.554 250.977 366.304 252.842 363.683 246.655L270.484 26.5307C269.17 23.4256 265.595 21.9507 262.462 23.2213L230.334 36.2554C227.144 37.5488 225.632 41.1909 226.97 44.3521L319.932 263.92C322.557 270.12 314.727 275.422 309.909 270.706L137.913 102.346C135.509 99.9936 131.657 99.9936 129.253 102.347L104.717 126.365C102.252 128.779 102.252 132.738 104.717 135.151L276.357 303.162C281.186 307.889 275.971 315.8 269.7 313.259L45.0266 222.215C41.8939 220.946 38.3192 222.422 37.0057 225.527L23.7627 256.839C22.4254 260.001 23.9394 263.642 27.1289 264.935L251.237 355.752C257.521 358.298 255.693 367.615 248.91 367.615H6.17864C2.76627 367.615 0 370.368 0 373.77V407.628C0 411.029 2.76626 413.787 6.17864 413.787H792.101C795.514 413.787 798.279 411.029 798.279 407.628V373.77C798.279 370.368 795.514 367.615 792.101 367.615H549.216C542.434 367.615 540.607 358.301 546.887 355.753L771.101 264.795C774.29 263.501 775.803 259.86 774.462 256.698L761.207 225.39C759.892 222.285 756.318 220.81 753.187 222.081L528.688 313.154C522.419 315.698 517.201 307.786 522.03 303.058L693.565 135.151C696.03 132.738 696.03 128.779 693.565 126.365L669.027 102.346C666.622 99.9936 662.769 99.9936 660.367 102.346L488.265 270.81C483.449 275.524 475.62 270.225 478.242 264.025L571.176 44.2891C572.512 41.1272 570.997 37.4862 567.807 36.1936L535.671 23.1712C532.54 21.9018 528.966 23.378 527.651 26.4837L434.597 246.504C431.979 252.693 422.725 250.829 422.725 244.113V6.15755Z" fill="black"/>
<path d="M228.592 413.839H571.405L575.327 401.498C577.731 393.261 579.628 384.846 580.88 376.358C585.789 343.023 581.52 309.194 568.47 278.085C559.155 255.894 545.424 236.107 528.439 219.122C517.007 207.69 502.454 196.798 488.216 189.096C465.718 176.928 442.329 169.857 416.911 167.393L405.941 166.557H393.142L383.086 167.393C338.164 171.745 297.004 191.45 266.114 224.607C244.101 248.233 228.437 278.09 221.471 309.624C217.942 325.604 216.978 339.952 217.165 356.247L217.581 360.817C218.477 373.854 220.209 385.189 223.633 397.841L228.592 413.839Z" fill="black"/>
</svg>
