<svg width="58" height="30" viewBox="0 0 58 30" fill="none" xmlns="http://www.w3.org/2000/svg">
<path d="M26.2167 17.9429L26.2167 17.9429C26.4742 18.5507 27.3846 18.3696 27.3846 17.707V0.446373C27.3846 0.288743 27.5131 0.16 27.6724 0.16L30.1964 0.16C30.3557 0.16 30.4842 0.288745 30.4842 0.446373V17.6962C30.4842 18.3589 31.3949 18.5399 31.6521 17.9319L31.5179 17.8751L31.6521 17.9319L38.3978 1.98222C38.3978 1.98221 38.3978 1.98219 38.3978 1.98218C38.459 1.83782 38.6255 1.76873 38.7717 1.828L38.7717 1.82801L41.1013 2.77203C41.2502 2.83236 41.3202 3.00174 41.2583 3.14828C41.2583 3.14829 41.2583 3.1483 41.2583 3.14831L34.5214 19.0774L34.6549 19.1339L34.5214 19.0774C34.262 19.6908 35.0355 20.2076 35.5072 19.7459L47.9832 7.53363L47.9832 7.53359C48.0951 7.42401 48.275 7.42389 48.3872 7.53368L50.1659 9.27478C50.166 9.27479 50.166 9.2748 50.166 9.27481C50.2805 9.38704 50.2805 9.57088 50.166 9.68303L37.7311 21.8549L37.843 21.9693L37.7311 21.8549C37.2533 22.3226 37.7717 23.0986 38.3857 22.8494L54.6601 16.2473L54.6009 16.1012L54.6602 16.2473C54.8064 16.188 54.9729 16.257 55.034 16.4013L55.1813 16.339L55.034 16.4013L55.9949 18.6709L55.995 18.671C56.0571 18.8176 55.9872 18.9869 55.8385 19.0472L39.5848 25.6409C38.9655 25.8922 39.1476 26.8091 39.8137 26.8091H57.421C57.5806 26.8091 57.7088 26.9377 57.7088 27.0953V29.5497C57.7088 29.7075 57.5804 29.8362 57.421 29.8362H0.447902C0.288418 29.8362 0.16 29.7075 0.16 29.5497V27.0953C0.16 26.9377 0.288294 26.8091 0.447902 26.8091H18.044C18.7101 26.8091 18.8924 25.8919 18.2728 25.6408L2.02672 19.0574C1.87793 18.9971 1.80796 18.8277 1.86996 18.6811L2.82998 16.4112C2.891 16.267 3.05756 16.1978 3.20397 16.2571L3.26186 16.1143L3.20397 16.2571L19.491 22.857C20.105 23.1059 20.6233 22.3301 20.1456 21.8625L20.0337 21.9768L20.1456 21.8625L7.70306 9.68304C7.58847 9.57086 7.58845 9.38702 7.70307 9.2748L9.48176 7.53365L9.36983 7.41931L9.48176 7.53365C9.59381 7.42395 9.77358 7.42395 9.88563 7.53363L22.354 19.7384C22.8258 20.2002 23.5996 19.6832 23.3398 19.0697L16.6009 3.15279L16.6009 3.15278C16.5388 3.0062 16.6087 2.83683 16.7575 2.7765L16.7575 2.77649L19.0866 1.83163C19.2329 1.77224 19.3995 1.84138 19.4606 1.98564L19.5941 1.9291L19.4606 1.98564L26.2167 17.9429Z" fill="url(#paint0_linear_17_40)" stroke="black" stroke-width="0.32"/>
<g filter="url(#filter0_i_17_40)">
<path d="M16.5711 30H41.4222L41.7065 29.1054C41.8808 28.5083 42.0183 27.8983 42.1091 27.2829C42.465 24.8664 42.1555 22.4141 41.2095 20.1589C40.5342 18.5502 39.5388 17.1158 38.3076 15.8845C37.4788 15.0558 36.4238 14.2662 35.3917 13.7079C33.7608 12.8259 32.0653 12.3133 30.2226 12.1347L29.4274 12.074H28.4996L27.7707 12.1347C24.5142 12.4501 21.5304 13.8786 19.2911 16.2822C17.6953 17.9949 16.5598 20.1593 16.0548 22.4453C15.799 23.6037 15.7291 24.6438 15.7427 25.825L15.7728 26.1564C15.8378 27.1014 15.9634 27.9231 16.2116 28.8403L16.5711 30Z" fill="url(#paint1_radial_17_40)"/>
</g>
<path d="M19.4082 16.3912L19.4082 16.3912C21.6196 14.0175 24.5664 12.6061 27.785 12.294C27.7854 12.294 27.7857 12.294 27.7861 12.2939L28.5063 12.234H29.4213L30.2088 12.2941C32.0298 12.4708 33.7042 12.9771 35.3156 13.8486C36.3339 14.3995 37.3765 15.1798 38.1944 15.9977C39.4122 17.2155 40.3953 18.6328 41.062 20.2208C41.9967 22.4491 42.3024 24.872 41.9508 27.2596C41.8613 27.8664 41.7257 28.4686 41.5535 29.0587L41.3052 29.84H16.689L16.3652 28.7957C16.1207 27.8911 15.9967 27.0805 15.9325 26.1454L15.9325 26.1454L15.9322 26.1419L15.9026 25.8168C15.8894 24.6466 15.9591 23.6209 16.2111 22.4798C16.7099 20.2216 17.8319 18.083 19.4082 16.3912Z" stroke="black" stroke-width="0.32"/>
<defs>
<filter id="filter0_i_17_40" x="15.7411" y="12.074" width="26.5114" height="17.926" filterUnits="userSpaceOnUse" color-interpolation-filters="sRGB">
<feFlood flood-opacity="0" result="BackgroundImageFix"/>
<feBlend mode="normal" in="SourceGraphic" in2="BackgroundImageFix" result="shape"/>
<feColorMatrix in="SourceAlpha" type="matrix" values="0 0 0 0 0 0 0 0 0 0 0 0 0 0 0 0 0 0 127 0" result="hardAlpha"/>
<feOffset/>
<feGaussianBlur stdDeviation="3.84042"/>
<feComposite in2="hardAlpha" operator="arithmetic" k2="-1" k3="1"/>
<feColorMatrix type="matrix" values="0 0 0 0 0.309722 0 0 0 0 0.309674 0 0 0 0 0.308432 0 0 0 1 0"/>
<feBlend mode="normal" in2="shape" result="effect1_innerShadow_17_40"/>
</filter>
<linearGradient id="paint0_linear_17_40" x1="22.0376" y1="-0.0217734" x2="28.9968" y2="30.1349" gradientUnits="userSpaceOnUse">
<stop stop-color="#545454"/>
<stop offset="1"/>
</linearGradient>
<radialGradient id="paint1_radial_17_40" cx="0" cy="0" r="1" gradientUnits="userSpaceOnUse" gradientTransform="translate(28.9968 25.3292) rotate(-58.1159) scale(26.4342 26.4342)">
<stop stop-color="#606060"/>
<stop offset="1"/>
</radialGradient>
</defs>
</svg>
