<?xml version="1.0" standalone="no"?>
<!DOCTYPE svg PUBLIC "-//W3C//DTD SVG 20010904//EN"
 "http://www.w3.org/TR/2001/REC-SVG-20010904/DTD/svg10.dtd">
<svg version="1.0" xmlns="http://www.w3.org/2000/svg"
 width="276.000000pt" height="276.000000pt" viewBox="0 0 276.000000 276.000000"
 preserveAspectRatio="xMidYMid meet">
<metadata>
Created by potrace 1.14, written by Peter Selinger 2001-2017
</metadata>
<g transform="translate(0.000000,276.000000) scale(0.100000,-0.100000)"
fill="#000000" stroke="none">
<path d="M35 2726 l-25 -25 0 -416 0 -416 25 -24 24 -25 434 0 c336 0 437 -3
444 -12 19 -24 5 -101 -33 -177 -84 -170 -346 -377 -730 -577 -71 -37 -137
-76 -146 -88 -16 -19 -18 -59 -18 -459 l0 -438 26 -26 c25 -25 25 -25 152 -19
242 13 377 39 535 106 384 161 588 524 597 1065 l0 30 57 -2 c31 -2 58 -5 60
-7 2 -2 6 -46 8 -97 18 -391 137 -664 377 -866 111 -92 346 -186 523 -208 28
-4 61 -8 74 -10 13 -2 82 -7 152 -11 l128 -6 25 25 c14 15 26 36 27 49 6 190
-1 849 -9 865 -6 11 -71 50 -144 88 -473 242 -765 505 -782 706 -7 73 -36 69
450 69 l435 0 24 25 25 24 0 414 c0 393 -1 416 -19 438 l-19 24 -1326 3 -1327
2 -24 -24z"/>
</g>
</svg>
