<svg fill="none" height="599" viewBox="0 0 1002 599" width="1002" xmlns="http://www.w3.org/2000/svg"><path d="m71.2699 27.1699c1.0782-7.541 4.8401-14.4402 10.5952-19.43113 5.755-4.99089 13.1171-7.73845042 20.7349-7.73877 262.813 52.8101 533.507 52.8101 796.32 0 7.618.00031958 14.98 2.74788 20.735 7.73877 5.755 4.99093 9.517 11.89013 10.595 19.43113l36.11 252.3601 34.83 243.38c.64 4.489.31 9.064-.97 13.415-1.279 4.351-3.479 8.377-6.449 11.803-2.971 3.427-6.643 6.176-10.769 8.06-4.125 1.884-8.607 2.86-13.142 2.862-310.492 52.95-627.708 52.95-938.2001 0-4.5358 0-9.0186-.975-13.1447-2.859-4.1261-1.883-7.7991-4.632-10.77015-8.059-2.97108-3.427-5.17082-7.453-6.45018-11.805-1.2793637-4.351-1.60846-8.927-.964998-13.417l34.830028-243.38z" fill="#717171"/></svg>